<svg width="180" height="58" viewBox="0 0 180 58" fill="none" xmlns="http://www.w3.org/2000/svg">
<g clip-path="url(#clip0_1_142)">
<path fill-rule="evenodd" clip-rule="evenodd" d="M20.2556 2.52132C18.5259 1.10768 16.0277 0.419922 12.799 0.419922H5.8038L0 27.6997H7.34113L9.22439 18.6447H10.8386C14.5668 18.6447 17.4879 17.766 19.6404 15.9703C21.7927 14.1747 22.8688 11.7294 22.8688 8.59639C22.8688 5.96012 21.9848 3.93517 20.2554 2.52153L20.2556 2.52132ZM11.8766 6.38023H12.9911C13.7982 6.38023 14.4132 6.60955 14.836 7.06799C15.2972 7.48831 15.5279 8.09963 15.5279 8.82551C15.5279 9.93359 15.182 10.8505 14.4901 11.5763C13.7599 12.3022 12.8373 12.6844 11.7228 12.6844H10.5314L11.8766 6.38023Z" fill="#393765"/>
<path fill-rule="evenodd" clip-rule="evenodd" d="M34.7849 17.7658L38.4362 27.6995H46.4308L45.7006 25.9037L41.4727 16.2757C43.2407 15.5115 44.5476 14.4034 45.4316 12.99C46.3156 11.538 46.7768 9.85693 46.7768 7.90842C46.7768 5.3867 45.9313 3.51463 44.2402 2.29199C42.5874 1.03124 40.1661 0.419922 37.0143 0.419922H29.7501L23.9463 27.6997H31.2874L33.4014 17.766H34.7851L34.7849 17.7658ZM35.8996 5.99802H36.8989C37.7445 5.99802 38.3593 6.18902 38.7821 6.60934C39.205 6.99155 39.4354 7.60287 39.4354 8.36686C39.4354 9.5895 39.0895 10.5447 38.3976 11.1943C37.6674 11.8819 36.7449 12.2258 35.5535 12.2258H34.5926L35.8994 5.99802H35.8996Z" fill="#393765"/>
<path fill-rule="evenodd" clip-rule="evenodd" d="M57.461 2.17805C55.2318 3.63001 53.5021 5.73141 52.1953 8.48224C50.927 11.2331 50.2734 14.2897 50.2734 17.5754C50.2734 20.8611 51.1958 23.4592 53.0024 25.2932C54.8473 27.1655 57.4608 28.0823 60.8047 28.0823C63.6874 28.0823 66.224 27.3565 68.4148 25.9045C70.6057 24.4144 72.3352 22.313 73.5651 19.6003C74.8334 16.8495 75.4484 13.831 75.4484 10.507C75.4484 7.18295 74.5644 4.62311 72.758 2.78916C70.9131 0.917084 68.4148 0 65.1478 0C62.2268 0 59.69 0.725875 57.4608 2.17784L57.461 2.17805ZM67.1468 16.3146C66.5701 18.0721 65.8016 19.4477 64.7638 20.4793C63.726 21.5109 62.6498 22.0458 61.4584 22.0458C58.9602 22.0458 57.6917 20.5557 57.6917 17.5375C57.6917 15.6271 57.9993 13.755 58.614 11.921C59.229 10.0871 60.0747 8.63533 61.1123 7.60369C62.1501 6.57205 63.3031 6.03717 64.5331 6.03717C65.6861 6.03717 66.5318 6.41917 67.1468 7.22148C67.7234 8.0238 68.0308 9.17 68.0308 10.5838C68.0308 12.6469 67.7617 14.5573 67.1468 16.3148V16.3146Z" fill="#393765"/>
<path fill-rule="evenodd" clip-rule="evenodd" d="M79.9741 35.3409C81.3576 34.6915 82.5109 33.6598 83.3947 32.2462C84.2787 30.8707 84.9706 28.9222 85.5087 26.4388L91.1201 0.419922H83.779L78.3597 25.5219C77.9754 27.203 77.4757 28.4256 76.7838 29.1515C76.0919 29.8774 75.0927 30.2596 73.7475 30.2596C72.7866 30.2596 71.7104 30.1067 70.4805 29.8011V35.7614C71.8257 36.1053 73.1325 36.2963 74.4777 36.2963C76.7071 36.2963 78.5518 35.9908 79.9739 35.3411L79.9741 35.3409Z" fill="#393765"/>
<path fill-rule="evenodd" clip-rule="evenodd" d="M109.15 21.7011H100.194L101.271 16.5431H109.611L110.956 10.6211H102.616L103.5 6.3419H112.455L113.685 0.419922H97.3885L91.585 27.6995H107.881L109.15 21.7011Z" fill="#393765"/>
<path fill-rule="evenodd" clip-rule="evenodd" d="M132.133 6.57163C133.132 6.91551 134.208 7.45038 135.361 8.13814L138.129 2.44528C135.438 0.802317 132.402 0 129.096 0C126.29 0 123.792 0.68776 121.601 2.1014C119.411 3.51503 117.681 5.61643 116.413 8.36726C115.144 11.1181 114.529 14.1747 114.529 17.4606C114.529 20.8611 115.413 23.459 117.143 25.293C118.911 27.1653 121.409 28.0821 124.676 28.0821C127.636 28.0821 130.403 27.5089 132.94 26.4011V20.3643C131.479 20.9756 130.249 21.396 129.173 21.6634C128.097 21.9308 127.059 22.0454 126.021 22.0454C124.714 22.0454 123.715 21.6253 122.985 20.8228C122.293 19.9821 121.947 18.7595 121.947 17.0784C121.947 15.0916 122.254 13.2576 122.869 11.5384C123.484 9.81901 124.368 8.48181 125.445 7.52661C126.521 6.57142 127.751 6.07465 129.096 6.07465C130.172 6.07465 131.171 6.22753 132.132 6.57141L132.133 6.57163Z" fill="#393765"/>
<path fill-rule="evenodd" clip-rule="evenodd" d="M152.999 6.45646H158.956L160.301 0.419922H141.007L139.7 6.45646H145.658L141.199 27.6995H148.54L152.999 6.45646Z" fill="#393765"/>
<path fill-rule="evenodd" clip-rule="evenodd" d="M94.8377 58.0006L95.4052 55.3148H88.2992L91.8116 38.8242H88.6775L84.5977 58.0006H94.8377Z" fill="#4F5150"/>
<path fill-rule="evenodd" clip-rule="evenodd" d="M103.27 58.0006L107.377 38.8242H104.27L100.163 58.0006H103.27Z" fill="#4F5150"/>
<path fill-rule="evenodd" clip-rule="evenodd" d="M115.155 50.1312H121.748L122.342 47.4725H115.722L116.992 41.51H124.071L124.638 38.8242H114.426L110.346 58.0006H113.48L115.155 50.1312Z" fill="#4F5150"/>
<path fill-rule="evenodd" clip-rule="evenodd" d="M136.85 55.3417H129.745L131.014 49.3524H137.661L138.201 46.6935H131.582L132.689 41.51H139.795L140.363 38.8242H130.123L126.043 58.0006H136.283L136.85 55.3417Z" fill="#4F5150"/>
<path fill-rule="evenodd" clip-rule="evenodd" d="M87.7573 32.8039H142.919C143.564 32.8039 144.11 33.2776 144.196 33.913L146.262 49.0738L149.463 33.5711C149.586 32.975 150.113 32.5477 150.725 32.5477H155.984L160.873 11.2798C161.007 10.6967 161.529 10.2842 162.129 10.2842C162.136 10.2842 162.143 10.2842 162.149 10.2844C162.758 10.2937 163.277 10.7248 163.394 11.3184L167.596 32.5868H178.711C179.423 32.5868 179.999 33.1603 179.999 33.8679C179.999 34.5756 179.423 35.149 178.711 35.149H166.536C165.92 35.149 165.39 34.7156 165.271 34.115L162.034 17.7303L158.268 34.1142C158.134 34.6965 157.612 35.1098 157.011 35.1098H151.776L147.264 56.9646C147.142 57.5622 146.612 57.9882 146.003 57.9882C145.988 57.9882 145.973 57.988 145.959 57.9878C145.331 57.9666 144.809 57.4983 144.725 56.8793L141.793 35.3661H87.7568V32.8039H87.7573Z" fill="#C8353A"/>
<path fill-rule="evenodd" clip-rule="evenodd" d="M20.2556 2.52132C18.5259 1.10768 16.0277 0.419922 12.799 0.419922H5.8038L0 27.6997H7.34113L9.22439 18.6447H10.8386C14.5668 18.6447 17.4879 17.766 19.6404 15.9703C21.7927 14.1747 22.8688 11.7294 22.8688 8.59639C22.8688 5.96012 21.9848 3.93517 20.2554 2.52153L20.2556 2.52132ZM11.8766 6.38023H12.9911C13.7982 6.38023 14.4132 6.60955 14.836 7.06799C15.2972 7.48831 15.5279 8.09963 15.5279 8.82551C15.5279 9.93359 15.182 10.8505 14.4901 11.5763C13.7599 12.3022 12.8373 12.6844 11.7228 12.6844H10.5314L11.8766 6.38023Z" fill="#393765"/>
<path fill-rule="evenodd" clip-rule="evenodd" d="M34.7849 17.7658L38.4362 27.6995H46.4308L45.7006 25.9037L41.4727 16.2757C43.2407 15.5115 44.5476 14.4034 45.4316 12.99C46.3156 11.538 46.7768 9.85693 46.7768 7.90842C46.7768 5.3867 45.9313 3.51463 44.2402 2.29199C42.5874 1.03124 40.1661 0.419922 37.0143 0.419922H29.7501L23.9463 27.6997H31.2874L33.4014 17.766H34.7851L34.7849 17.7658ZM35.8996 5.99802H36.8989C37.7445 5.99802 38.3593 6.18902 38.7821 6.60934C39.205 6.99155 39.4354 7.60287 39.4354 8.36686C39.4354 9.5895 39.0895 10.5447 38.3976 11.1943C37.6674 11.8819 36.7449 12.2258 35.5535 12.2258H34.5926L35.8994 5.99802H35.8996Z" fill="#393765"/>
<path fill-rule="evenodd" clip-rule="evenodd" d="M57.461 2.17805C55.2318 3.63001 53.5021 5.73141 52.1953 8.48224C50.927 11.2331 50.2734 14.2897 50.2734 17.5754C50.2734 20.8611 51.1958 23.4592 53.0024 25.2932C54.8473 27.1655 57.4608 28.0823 60.8047 28.0823C63.6874 28.0823 66.224 27.3565 68.4148 25.9045C70.6057 24.4144 72.3352 22.313 73.5651 19.6003C74.8334 16.8495 75.4484 13.831 75.4484 10.507C75.4484 7.18295 74.5644 4.62311 72.758 2.78916C70.9131 0.917084 68.4148 0 65.1478 0C62.2268 0 59.69 0.725875 57.4608 2.17784L57.461 2.17805ZM67.1468 16.3146C66.5701 18.0721 65.8016 19.4477 64.7638 20.4793C63.726 21.5109 62.6498 22.0458 61.4584 22.0458C58.9602 22.0458 57.6917 20.5557 57.6917 17.5375C57.6917 15.6271 57.9993 13.755 58.614 11.921C59.229 10.0871 60.0747 8.63533 61.1123 7.60369C62.1501 6.57205 63.3031 6.03717 64.5331 6.03717C65.6861 6.03717 66.5318 6.41917 67.1468 7.22148C67.7234 8.0238 68.0308 9.17 68.0308 10.5838C68.0308 12.6469 67.7617 14.5573 67.1468 16.3148V16.3146Z" fill="#393765"/>
<path fill-rule="evenodd" clip-rule="evenodd" d="M79.9741 35.3409C81.3576 34.6915 82.5109 33.6598 83.3947 32.2462C84.2787 30.8707 84.9706 28.9222 85.5087 26.4388L91.1201 0.419922H83.779L78.3597 25.5219C77.9754 27.203 77.4757 28.4256 76.7838 29.1515C76.0919 29.8774 75.0927 30.2596 73.7475 30.2596C72.7866 30.2596 71.7104 30.1067 70.4805 29.8011V35.7614C71.8257 36.1053 73.1325 36.2963 74.4777 36.2963C76.7071 36.2963 78.5518 35.9908 79.9739 35.3411L79.9741 35.3409Z" fill="#393765"/>
<path fill-rule="evenodd" clip-rule="evenodd" d="M109.15 21.7011H100.194L101.271 16.5431H109.611L110.956 10.6211H102.616L103.5 6.3419H112.455L113.685 0.419922H97.3885L91.585 27.6995H107.881L109.15 21.7011Z" fill="#393765"/>
<path fill-rule="evenodd" clip-rule="evenodd" d="M132.133 6.57163C133.132 6.91551 134.208 7.45038 135.361 8.13814L138.129 2.44528C135.438 0.802317 132.402 0 129.096 0C126.29 0 123.792 0.68776 121.601 2.1014C119.411 3.51503 117.681 5.61643 116.413 8.36726C115.144 11.1181 114.529 14.1747 114.529 17.4606C114.529 20.8611 115.413 23.459 117.143 25.293C118.911 27.1653 121.409 28.0821 124.676 28.0821C127.636 28.0821 130.403 27.5089 132.94 26.4011V20.3643C131.479 20.9756 130.249 21.396 129.173 21.6634C128.097 21.9308 127.059 22.0454 126.021 22.0454C124.714 22.0454 123.715 21.6253 122.985 20.8228C122.293 19.9821 121.947 18.7595 121.947 17.0784C121.947 15.0916 122.254 13.2576 122.869 11.5384C123.484 9.81901 124.368 8.48181 125.445 7.52661C126.521 6.57142 127.751 6.07465 129.096 6.07465C130.172 6.07465 131.171 6.22753 132.132 6.57141L132.133 6.57163Z" fill="#393765"/>
<path fill-rule="evenodd" clip-rule="evenodd" d="M152.999 6.45646H158.956L160.301 0.419922H141.007L139.7 6.45646H145.658L141.199 27.6995H148.54L152.999 6.45646Z" fill="#393765"/>
<path fill-rule="evenodd" clip-rule="evenodd" d="M94.8377 58.0006L95.4052 55.3148H88.2992L91.8116 38.8242H88.6775L84.5977 58.0006H94.8377Z" fill="#4F5150"/>
<path fill-rule="evenodd" clip-rule="evenodd" d="M103.27 58.0006L107.377 38.8242H104.27L100.163 58.0006H103.27Z" fill="#4F5150"/>
<path fill-rule="evenodd" clip-rule="evenodd" d="M115.155 50.1312H121.748L122.342 47.4725H115.722L116.992 41.51H124.071L124.638 38.8242H114.426L110.346 58.0006H113.48L115.155 50.1312Z" fill="#4F5150"/>
<path fill-rule="evenodd" clip-rule="evenodd" d="M136.85 55.3417H129.745L131.014 49.3524H137.661L138.201 46.6935H131.582L132.689 41.51H139.795L140.363 38.8242H130.123L126.043 58.0006H136.283L136.85 55.3417Z" fill="#4F5150"/>
<path fill-rule="evenodd" clip-rule="evenodd" d="M87.7573 32.8039H142.919C143.564 32.8039 144.11 33.2776 144.196 33.913L146.262 49.0738L149.463 33.5711C149.586 32.975 150.113 32.5477 150.725 32.5477H155.984L160.873 11.2798C161.007 10.6967 161.529 10.2842 162.129 10.2842C162.136 10.2842 162.143 10.2842 162.149 10.2844C162.758 10.2937 163.277 10.7248 163.394 11.3184L167.596 32.5868H178.711C179.423 32.5868 179.999 33.1603 179.999 33.8679C179.999 34.5756 179.423 35.149 178.711 35.149H166.536C165.92 35.149 165.39 34.7156 165.271 34.115L162.034 17.7303L158.268 34.1142C158.134 34.6965 157.612 35.1098 157.011 35.1098H151.776L147.264 56.9646C147.142 57.5622 146.612 57.9882 146.003 57.9882C145.988 57.9882 145.973 57.988 145.959 57.9878C145.331 57.9666 144.809 57.4983 144.725 56.8793L141.793 35.3661H87.7568V32.8039H87.7573Z" fill="#C8353A"/>
<path fill-rule="evenodd" clip-rule="evenodd" d="M20.2556 2.52132C18.5259 1.10768 16.0277 0.419922 12.799 0.419922H5.8038L0 27.6997H7.34113L9.22439 18.6447H10.8386C14.5668 18.6447 17.4879 17.766 19.6404 15.9703C21.7927 14.1747 22.8688 11.7294 22.8688 8.59639C22.8688 5.96012 21.9848 3.93517 20.2554 2.52153L20.2556 2.52132ZM11.8766 6.38023H12.9911C13.7982 6.38023 14.4132 6.60955 14.836 7.06799C15.2972 7.48831 15.5279 8.09963 15.5279 8.82551C15.5279 9.93359 15.182 10.8505 14.4901 11.5763C13.7599 12.3022 12.8373 12.6844 11.7228 12.6844H10.5314L11.8766 6.38023Z" fill="#393765"/>
<path fill-rule="evenodd" clip-rule="evenodd" d="M34.7849 17.7658L38.4362 27.6995H46.4308L45.7006 25.9037L41.4727 16.2757C43.2407 15.5115 44.5476 14.4034 45.4316 12.99C46.3156 11.538 46.7768 9.85693 46.7768 7.90842C46.7768 5.3867 45.9313 3.51463 44.2402 2.29199C42.5874 1.03124 40.1661 0.419922 37.0143 0.419922H29.7501L23.9463 27.6997H31.2874L33.4014 17.766H34.7851L34.7849 17.7658ZM35.8996 5.99802H36.8989C37.7445 5.99802 38.3593 6.18902 38.7821 6.60934C39.205 6.99155 39.4354 7.60287 39.4354 8.36686C39.4354 9.5895 39.0895 10.5447 38.3976 11.1943C37.6674 11.8819 36.7449 12.2258 35.5535 12.2258H34.5926L35.8994 5.99802H35.8996Z" fill="#393765"/>
<path fill-rule="evenodd" clip-rule="evenodd" d="M57.461 2.17805C55.2318 3.63001 53.5021 5.73141 52.1953 8.48224C50.927 11.2331 50.2734 14.2897 50.2734 17.5754C50.2734 20.8611 51.1958 23.4592 53.0024 25.2932C54.8473 27.1655 57.4608 28.0823 60.8047 28.0823C63.6874 28.0823 66.224 27.3565 68.4148 25.9045C70.6057 24.4144 72.3352 22.313 73.5651 19.6003C74.8334 16.8495 75.4484 13.831 75.4484 10.507C75.4484 7.18295 74.5644 4.62311 72.758 2.78916C70.9131 0.917084 68.4148 0 65.1478 0C62.2268 0 59.69 0.725875 57.4608 2.17784L57.461 2.17805ZM67.1468 16.3146C66.5701 18.0721 65.8016 19.4477 64.7638 20.4793C63.726 21.5109 62.6498 22.0458 61.4584 22.0458C58.9602 22.0458 57.6917 20.5557 57.6917 17.5375C57.6917 15.6271 57.9993 13.755 58.614 11.921C59.229 10.0871 60.0747 8.63533 61.1123 7.60369C62.1501 6.57205 63.3031 6.03717 64.5331 6.03717C65.6861 6.03717 66.5318 6.41917 67.1468 7.22148C67.7234 8.0238 68.0308 9.17 68.0308 10.5838C68.0308 12.6469 67.7617 14.5573 67.1468 16.3148V16.3146Z" fill="#393765"/>
<path fill-rule="evenodd" clip-rule="evenodd" d="M79.9741 35.3409C81.3576 34.6915 82.5109 33.6598 83.3947 32.2462C84.2787 30.8707 84.9706 28.9222 85.5087 26.4388L91.1201 0.419922H83.779L78.3597 25.5219C77.9754 27.203 77.4757 28.4256 76.7838 29.1515C76.0919 29.8774 75.0927 30.2596 73.7475 30.2596C72.7866 30.2596 71.7104 30.1067 70.4805 29.8011V35.7614C71.8257 36.1053 73.1325 36.2963 74.4777 36.2963C76.7071 36.2963 78.5518 35.9908 79.9739 35.3411L79.9741 35.3409Z" fill="#393765"/>
<path fill-rule="evenodd" clip-rule="evenodd" d="M109.15 21.7011H100.194L101.271 16.5431H109.611L110.956 10.6211H102.616L103.5 6.3419H112.455L113.685 0.419922H97.3885L91.585 27.6995H107.881L109.15 21.7011Z" fill="#393765"/>
<path fill-rule="evenodd" clip-rule="evenodd" d="M132.133 6.57163C133.132 6.91551 134.208 7.45038 135.361 8.13814L138.129 2.44528C135.438 0.802317 132.402 0 129.096 0C126.29 0 123.792 0.68776 121.601 2.1014C119.411 3.51503 117.681 5.61643 116.413 8.36726C115.144 11.1181 114.529 14.1747 114.529 17.4606C114.529 20.8611 115.413 23.459 117.143 25.293C118.911 27.1653 121.409 28.0821 124.676 28.0821C127.636 28.0821 130.403 27.5089 132.94 26.4011V20.3643C131.479 20.9756 130.249 21.396 129.173 21.6634C128.097 21.9308 127.059 22.0454 126.021 22.0454C124.714 22.0454 123.715 21.6253 122.985 20.8228C122.293 19.9821 121.947 18.7595 121.947 17.0784C121.947 15.0916 122.254 13.2576 122.869 11.5384C123.484 9.81901 124.368 8.48181 125.445 7.52661C126.521 6.57142 127.751 6.07465 129.096 6.07465C130.172 6.07465 131.171 6.22753 132.132 6.57141L132.133 6.57163Z" fill="#393765"/>
<path fill-rule="evenodd" clip-rule="evenodd" d="M152.999 6.45646H158.956L160.301 0.419922H141.007L139.7 6.45646H145.658L141.199 27.6995H148.54L152.999 6.45646Z" fill="#393765"/>
<path fill-rule="evenodd" clip-rule="evenodd" d="M94.8377 58.0006L95.4052 55.3148H88.2992L91.8116 38.8242H88.6775L84.5977 58.0006H94.8377Z" fill="#4F5150"/>
<path fill-rule="evenodd" clip-rule="evenodd" d="M103.27 58.0006L107.377 38.8242H104.27L100.163 58.0006H103.27Z" fill="#4F5150"/>
<path fill-rule="evenodd" clip-rule="evenodd" d="M115.155 50.1312H121.748L122.342 47.4725H115.722L116.992 41.51H124.071L124.638 38.8242H114.426L110.346 58.0006H113.48L115.155 50.1312Z" fill="#4F5150"/>
<path fill-rule="evenodd" clip-rule="evenodd" d="M136.85 55.3417H129.745L131.014 49.3524H137.661L138.201 46.6935H131.582L132.689 41.51H139.795L140.363 38.8242H130.123L126.043 58.0006H136.283L136.85 55.3417Z" fill="#4F5150"/>
<path fill-rule="evenodd" clip-rule="evenodd" d="M87.7573 32.8039H142.919C143.564 32.8039 144.11 33.2776 144.196 33.913L146.262 49.0738L149.463 33.5711C149.586 32.975 150.113 32.5477 150.725 32.5477H155.984L160.873 11.2798C161.007 10.6967 161.529 10.2842 162.129 10.2842C162.136 10.2842 162.143 10.2842 162.149 10.2844C162.758 10.2937 163.277 10.7248 163.394 11.3184L167.596 32.5868H178.711C179.423 32.5868 179.999 33.1603 179.999 33.8679C179.999 34.5756 179.423 35.149 178.711 35.149H166.536C165.92 35.149 165.39 34.7156 165.271 34.115L162.034 17.7303L158.268 34.1142C158.134 34.6965 157.612 35.1098 157.011 35.1098H151.776L147.264 56.9646C147.142 57.5622 146.612 57.9882 146.003 57.9882C145.988 57.9882 145.973 57.988 145.959 57.9878C145.331 57.9666 144.809 57.4983 144.725 56.8793L141.793 35.3661H87.7568V32.8039H87.7573Z" fill="#C8353A"/>
</g>
<defs>
<clipPath id="clip0_1_142">
<rect width="180" height="58" fill="white"/>
</clipPath>
</defs>
</svg>
